<svg version="1.1" xmlns="http://www.w3.org/2000/svg" xmlns:xlink="http://www.w3.org/1999/xlink" viewBox="0 0 172 172"><g fill="none" fill-rule="nonzero" stroke="none" stroke-width="1" stroke-linecap="butt" stroke-linejoin="miter" stroke-miterlimit="10" stroke-dasharray="" stroke-dashoffset="0" font-family="none" font-weight="none" font-size="none" text-anchor="none" style="mix-blend-mode: normal"><path d="M0,172v-172h172v172z" fill="none"></path><g><path d="M115.5625,12.09375h-72.5625c-7.39062,0 -13.4375,6.04688 -13.4375,13.4375v120.9375c0,7.39063 6.04688,13.4375 13.4375,13.4375h86c7.39063,0 13.4375,-6.04687 13.4375,-13.4375v-107.5c0,-14.78125 -12.09375,-26.875 -26.875,-26.875z" fill="#ffffff"></path><path d="M76.59375,140.69063c-0.26875,0 -0.5375,0 -0.80625,-0.13438c-0.26875,0 -0.5375,-0.13437 -0.80625,-0.26875c-0.26875,-0.13437 -0.40313,-0.26875 -0.67187,-0.40312c-0.26875,-0.13437 -0.40313,-0.26875 -0.67187,-0.5375c-0.13438,-0.13438 -0.40313,-0.40313 -0.5375,-0.67187c-0.13437,-0.26875 -0.26875,-0.40313 -0.40312,-0.67187c-0.13438,-0.26875 -0.13438,-0.5375 -0.26875,-0.80625c0,-0.26875 -0.13437,-0.5375 -0.13437,-0.80625c0,-0.26875 0,-0.5375 0.13437,-0.80625c0,-0.26875 0.13438,-0.5375 0.26875,-0.80625c0.13437,-0.26875 0.26875,-0.5375 0.40312,-0.67187c0.13438,-0.26875 0.26875,-0.40313 0.5375,-0.67187c0.13437,-0.13438 0.40312,-0.40313 0.67188,-0.5375c0.26875,-0.13437 0.40312,-0.26875 0.67188,-0.40312c0.26875,-0.13438 0.5375,-0.13438 0.80625,-0.26875c0.5375,-0.13437 1.075,-0.13437 1.6125,0c0.26875,0 0.5375,0.13438 0.80625,0.26875c0.26875,0.13437 0.5375,0.26875 0.67188,0.40312c0.26875,0.13438 0.40313,0.26875 0.67188,0.5375c0.13438,0.13437 0.40313,0.40312 0.5375,0.67188c0.13437,0.26875 0.26875,0.40312 0.40312,0.67188c0.13438,0.26875 0.13438,0.5375 0.26875,0.80625c0,0.26875 0.13437,0.5375 0.13437,0.80625c0,0.26875 0,0.5375 -0.13437,0.80625c0,0.26875 -0.13438,0.5375 -0.26875,0.80625c-0.13437,0.26875 -0.26875,0.5375 -0.40312,0.67188c-0.13438,0.26875 -0.26875,0.40312 -0.5375,0.67188c-0.80625,0.80625 -1.88125,1.34375 -2.95625,1.34375zM100.10938,143.78125c-2.6875,0 -5.10625,-1.47813 -6.18125,-3.89687v-0.13438c-1.20938,0.94063 -2.82187,1.075 -4.3,0.40312c-2.01562,-0.94062 -2.82187,-3.35937 -1.74687,-5.375c1.20938,-2.41875 3.62812,-3.89687 6.31562,-3.89687c2.41875,0 4.56875,1.20937 5.77813,3.09062l1.075,-3.49375c0.94063,-2.95625 3.62813,-5.10625 6.71875,-5.375c3.09063,-0.26875 6.04688,1.34375 7.525,4.03125l2.6875,5.10625c0.40312,0.80625 1.075,0.94063 1.47812,1.075c0.40312,0 1.075,0 1.74687,-0.5375c1.6125,-1.6125 4.16562,-1.6125 5.64375,0c1.6125,1.6125 1.6125,4.16562 0,5.64375c-2.28438,2.28438 -5.375,3.35938 -8.6,2.82188c-3.225,-0.5375 -5.9125,-2.41875 -7.39062,-5.24063l-2.41875,-4.43437l-1.6125,5.375c-0.80625,2.6875 -3.225,4.70313 -6.04687,4.8375c-0.26875,0 -0.40312,0 -0.67187,0z" fill="#f37022"></path><path d="M115.5625,83.3125h-59.125c-2.28438,0 -4.03125,-1.74688 -4.03125,-4.03125c0,-2.28437 1.74687,-4.03125 4.03125,-4.03125h59.125c2.28437,0 4.03125,1.74688 4.03125,4.03125c0,2.28437 -1.74688,4.03125 -4.03125,4.03125zM102.125,43h-32.25c-2.28437,0 -4.03125,-1.74688 -4.03125,-4.03125c0,-2.28437 1.74688,-4.03125 4.03125,-4.03125h32.25c2.28437,0 4.03125,1.74688 4.03125,4.03125c0,2.28437 -1.74688,4.03125 -4.03125,4.03125zM95.40625,103.46875h-38.96875c-2.28438,0 -4.03125,-1.74688 -4.03125,-4.03125c0,-2.28437 1.74687,-4.03125 4.03125,-4.03125h38.96875c2.28437,0 4.03125,1.74688 4.03125,4.03125c0,2.28437 -1.74688,4.03125 -4.03125,4.03125zM115.5625,103.46875c-1.075,0 -2.15,-0.40313 -2.82187,-1.20938c-0.13437,-0.13437 -0.40313,-0.40312 -0.5375,-0.67187c-0.13437,-0.26875 -0.26875,-0.40312 -0.40313,-0.67187c-0.13437,-0.26875 -0.13437,-0.5375 -0.26875,-0.80625c0,-0.26875 -0.13437,-0.5375 -0.13437,-0.80625c0,-1.075 0.40312,-2.15 1.20938,-2.82187c0.13437,-0.13437 0.40312,-0.40313 0.67188,-0.5375c0.26875,-0.13437 0.40312,-0.26875 0.67188,-0.40313c0.26875,-0.13437 0.5375,-0.13437 0.80625,-0.26875c1.34375,-0.26875 2.6875,0.13437 3.62812,1.075c0.80625,0.80625 1.20938,1.74688 1.20938,2.82188c0,0.26875 0,0.5375 -0.13437,0.80625c0,0.26875 -0.13437,0.5375 -0.26875,0.80625c-0.13437,0.26875 -0.26875,0.5375 -0.40313,0.67188c-0.13437,0.26875 -0.26875,0.40312 -0.5375,0.67188c-0.5375,0.94063 -1.6125,1.34375 -2.6875,1.34375z" fill="#e9eef4"></path><path d="M142.4375,38.96875h-13.4375c-7.39062,0 -13.4375,-6.04687 -13.4375,-13.4375v-13.4375v0c14.78125,0 26.875,12.09375 26.875,26.875z" fill="#ffffff"></path><g fill="#444b54"><path d="M137.46562,17.2c-5.9125,-5.9125 -13.57187,-9.1375 -21.90312,-9.1375v0h-72.5625c-9.675,0 -17.46875,7.79375 -17.46875,17.46875v120.9375c0,9.80937 7.92813,17.46875 14.78125,17.46875h85.73125c11.69062,0 20.15625,-7.39062 20.15625,-17.46875l0.13438,-90.03125c0,-2.28438 -1.74687,-4.03125 -4.03125,-4.03125v0c-2.28438,0 -4.03125,1.74687 -4.03125,4.03125l-0.13438,90.03125c0,5.64375 -4.8375,9.40625 -12.09375,9.40625h-85.73125c-2.28437,0 -6.71875,-4.03125 -6.71875,-9.40625v-120.9375c0,-5.24063 4.16562,-9.40625 9.40625,-9.40625h68.53125v9.40625c0,9.675 7.79375,17.46875 17.46875,17.46875h12.9c0.13437,0 0.26875,0 0.5375,0v0c1.6125,0 3.09062,-1.075 3.7625,-2.41875c0.26875,-0.5375 0.40313,-1.075 0.40313,-1.6125c0,-0.13437 0,-0.40313 0,-0.5375c-0.26875,-8.0625 -3.49375,-15.5875 -9.1375,-21.23125zM119.59375,25.53125v-9.00313c4.56875,0.80625 8.73438,2.95625 12.09375,6.31563c3.35938,3.35938 5.50938,7.525 6.31563,12.09375h-9.00313c-5.24063,0 -9.40625,-4.16563 -9.40625,-9.40625z"></path></g></g></g></svg>