<svg version="1.1" xmlns="http://www.w3.org/2000/svg" xmlns:xlink="http://www.w3.org/1999/xlink" viewBox="0 0 172 172"><g fill="none" fill-rule="nonzero" stroke="none" stroke-width="1" stroke-linecap="butt" stroke-linejoin="miter" stroke-miterlimit="10" stroke-dasharray="" stroke-dashoffset="0" font-family="none" font-weight="none" font-size="none" text-anchor="none" style="mix-blend-mode: normal"><path d="M0,172v-172h172v172z" fill="none"></path><g><path d="M29.5625,25.53125v120.9375c0,7.39063 6.04688,13.4375 13.4375,13.4375h85.73125c7.39063,0 13.4375,-6.04687 13.4375,-13.4375l0.13438,-107.5c0.13438,-14.78125 -11.95937,-26.875 -26.74062,-26.875h-72.5625c-7.39062,0 -13.4375,6.04688 -13.4375,13.4375z" fill="#ffffff"></path><path d="M7.65938,164.34062v0c-3.09062,-3.09062 -3.09062,-8.19687 0,-11.42187l15.18438,-15.18437c3.09062,-3.09062 8.19688,-3.09062 11.42188,0v0c3.09063,3.09062 3.09063,8.19688 0,11.42188l-15.18437,15.18437c-3.09063,3.09063 -8.19687,3.09063 -11.42187,0z" fill="#ffffff"></path><path d="M68.53125,142.16875c-20.69375,0 -37.625,-16.93125 -37.625,-37.625c0,-20.69375 16.93125,-37.625 37.625,-37.625c20.69375,0 37.625,16.93125 37.625,37.625c0,20.69375 -16.93125,37.625 -37.625,37.625zM68.53125,74.98125c-16.25937,0 -29.5625,13.30312 -29.5625,29.5625c0,16.25937 13.30313,29.5625 29.5625,29.5625c16.25938,0 29.5625,-13.30312 29.5625,-29.5625c0,-16.25938 -13.30312,-29.5625 -29.5625,-29.5625z" fill="#f37022"></path><path d="M34.26563,141.76563c-1.075,0 -2.01562,-0.40312 -2.82188,-1.20937c-1.6125,-1.6125 -1.6125,-4.16563 0,-5.64375l9.54063,-9.54062c1.6125,-1.6125 4.16562,-1.6125 5.64375,0c1.6125,1.6125 1.6125,4.16562 0,5.64375l-9.54063,9.54063c-0.67187,0.80625 -1.74687,1.20937 -2.82187,1.20937z" fill="#f37022"></path><path d="M13.4375,170.79063c-3.09062,0 -6.18125,-1.20938 -8.6,-3.49375v0c-2.28437,-2.28438 -3.49375,-5.375 -3.49375,-8.6c0,-3.225 1.20937,-6.31563 3.49375,-8.6l15.18438,-15.18437c2.28438,-2.28438 5.375,-3.49375 8.6,-3.49375c3.225,0 6.31563,1.20938 8.6,3.49375c2.28437,2.28438 3.49375,5.375 3.49375,8.6c0,3.225 -1.20937,6.31563 -3.49375,8.6l-15.18438,15.18437c-2.41875,2.28438 -5.50938,3.49375 -8.6,3.49375zM10.61563,161.51875c1.6125,1.6125 4.16563,1.6125 5.64375,0l15.18438,-15.18438c0.80625,-0.80625 1.20938,-1.74687 1.20938,-2.82187c0,-1.075 -0.40313,-2.15 -1.20938,-2.82188c-1.47813,-1.47812 -4.16563,-1.47812 -5.64375,0l-15.18438,15.05c-0.80625,0.80625 -1.20937,1.74688 -1.20937,2.82188c0,1.20937 0.40312,2.15 1.20937,2.95625z" fill="#f37022"></path><g fill="#444b54"><path d="M126.04375,163.9375c11.69062,0 20.15625,-7.39062 20.15625,-17.46875l0.13438,-90.03125c0,-2.28438 -1.74687,-4.03125 -4.03125,-4.03125v0c-2.28438,0 -4.03125,1.74687 -4.03125,4.03125l-0.13438,90.03125c0,5.64375 -4.8375,9.40625 -12.09375,9.40625h-58.85625c-2.28437,0 -4.03125,1.74687 -4.03125,4.03125c0,2.28438 1.74688,4.03125 4.03125,4.03125zM146.46875,38.43125c-0.13438,-8.0625 -3.35937,-15.5875 -9.00313,-21.36562c-5.9125,-5.77813 -13.57187,-9.00313 -21.90312,-9.00313v0h-72.5625c-9.675,0 -17.46875,7.79375 -17.46875,17.46875v40.3125c0,2.28437 1.74687,4.03125 4.03125,4.03125c2.28438,0 4.03125,-1.74688 4.03125,-4.03125v-40.3125c0,-5.24063 4.16562,-9.40625 9.40625,-9.40625h68.53125v9.40625c0,9.675 7.79375,17.46875 17.46875,17.46875h12.9c0.13437,0 0.26875,0 0.5375,0v0c1.6125,0 3.09062,-1.075 3.7625,-2.41875c0.26875,-0.5375 0.40313,-1.075 0.40313,-1.6125c-0.13438,-0.13437 -0.13438,-0.40313 -0.13438,-0.5375zM119.59375,25.53125v-9.00313c4.56875,0.80625 8.73438,2.95625 12.09375,6.31563c3.35938,3.35938 5.50938,7.525 6.31563,12.09375h-9.00313c-5.24063,0 -9.40625,-4.16563 -9.40625,-9.40625z"></path></g></g></g></svg>