<svg version="1.1" xmlns="http://www.w3.org/2000/svg" xmlns:xlink="http://www.w3.org/1999/xlink" viewBox="0 0 172 172"><g fill="none" fill-rule="nonzero" stroke="none" stroke-width="1" stroke-linecap="butt" stroke-linejoin="miter" stroke-miterlimit="10" stroke-dasharray="" stroke-dashoffset="0" font-family="none" font-weight="none" font-size="none" text-anchor="none" style="mix-blend-mode: normal"><path d="M0,172v-172h172v172z" fill="none"></path><g><path d="M135.31563,102.52813c-13.58103,0 -24.59063,11.0096 -24.59063,24.59062c0,13.58103 11.0096,24.59063 24.59063,24.59063c13.58103,0 24.59062,-11.0096 24.59062,-24.59063c0,-13.58103 -11.0096,-24.59062 -24.59062,-24.59062z" fill="#edecf2"></path><path d="M36.68438,102.52813c-13.58103,0 -24.59062,11.0096 -24.59062,24.59062c0,13.58103 11.0096,24.59063 24.59062,24.59063c13.58103,0 24.59062,-11.0096 24.59062,-24.59063c0,-13.58103 -11.0096,-24.59062 -24.59062,-24.59062z" fill="#f37022"></path><path d="M86,20.29062c-13.58103,0 -24.59062,11.0096 -24.59062,24.59063c0,13.58103 11.0096,24.59062 24.59062,24.59062c13.58103,0 24.59063,-11.0096 24.59063,-24.59062c0,-13.58103 -11.0096,-24.59063 -24.59063,-24.59063z" fill="#f89b63"></path><path d="M36.68438,155.74063c-15.72188,0 -28.62188,-12.9 -28.62188,-28.62188c0,-15.72187 12.9,-28.62187 28.62188,-28.62187c15.72187,0 28.62188,12.9 28.62188,28.62187c0,15.72187 -12.76563,28.62188 -28.62188,28.62188zM36.68438,106.425c-11.42188,0 -20.55938,9.27188 -20.55938,20.55938c0,11.42188 9.27187,20.55937 20.55938,20.55937c11.42187,0 20.55937,-9.27187 20.55937,-20.55937c0.13438,-11.2875 -9.1375,-20.55938 -20.55937,-20.55938zM135.31563,155.74063c-15.85625,0 -28.62188,-12.9 -28.62188,-28.62187c0,-15.72187 12.9,-28.62187 28.62188,-28.62187c15.72187,0 28.62187,12.76562 28.62187,28.62187c0,15.85625 -12.9,28.62188 -28.62187,28.62188zM135.31563,106.425c-11.42188,0 -20.55938,9.27188 -20.55938,20.55938c0,11.42188 9.27188,20.55937 20.55938,20.55937c11.42188,0 20.55937,-9.27187 20.55937,-20.55937c0,-11.2875 -9.27187,-20.55938 -20.55937,-20.55938zM86,73.6375c-15.85625,0 -28.62187,-12.9 -28.62187,-28.62188c0,-15.72187 12.76562,-28.75625 28.62187,-28.75625c15.85625,0 28.62188,12.9 28.62188,28.62188c0,15.72187 -12.76562,28.75625 -28.62188,28.75625zM86,24.32188c-11.42187,0 -20.55938,9.27187 -20.55938,20.55938c0,11.42188 9.27188,20.55937 20.55938,20.55937c11.2875,0 20.55938,-9.27187 20.55938,-20.55937c0,-11.2875 -9.1375,-20.55938 -20.55938,-20.55938z" fill="#464c55"></path><g fill="#464c55"><path d="M122.55,109.91875c-1.34375,0 -2.6875,-0.67187 -3.49375,-2.01562l-15.45313,-25.66563c-1.20938,-1.88125 -0.5375,-4.43437 1.34375,-5.50937c1.88125,-1.20938 4.43438,-0.5375 5.50937,1.34375l15.45313,25.8c1.20938,1.88125 0.5375,4.43437 -1.34375,5.50937c-0.5375,0.40313 -1.20937,0.5375 -2.01562,0.5375z"></path></g><g fill="#464c55"><path d="M58.31875,96.2125c-0.67187,0 -1.47813,-0.13437 -2.15,-0.5375c-1.88125,-1.20938 -2.41875,-3.62812 -1.34375,-5.50937l15.85625,-25.66562c1.20937,-1.88125 3.62812,-2.55313 5.50937,-1.34375c1.88125,1.20937 2.41875,3.62812 1.34375,5.50938l-15.85625,25.53125c-0.80625,1.20938 -2.01563,2.01563 -3.35938,2.01563z"></path></g></g></g></svg>