<svg version="1.1" xmlns="http://www.w3.org/2000/svg" xmlns:xlink="http://www.w3.org/1999/xlink" viewBox="0 0 172 172"><g fill="none" fill-rule="nonzero" stroke="none" stroke-width="1" stroke-linecap="butt" stroke-linejoin="miter" stroke-miterlimit="10" stroke-dasharray="" stroke-dashoffset="0" font-family="none" font-weight="none" font-size="none" text-anchor="none" style="mix-blend-mode: normal"><path d="M0,172v-172h172v172z" fill="none"></path><g><path d="M153.1875,108.84375v-90.03125c0,-7.39062 -6.04687,-13.4375 -13.4375,-13.4375h-107.5c-7.39062,0 -13.4375,6.04688 -13.4375,13.4375v90.03125h-13.4375v4.03125c0,7.39063 6.04688,13.4375 13.4375,13.4375h134.375c7.39063,0 13.4375,-6.04687 13.4375,-13.4375v-4.03125z" fill="#ffffff"></path><path d="M99.4375,112.875h-26.875c-2.28437,0 -4.03125,-1.74688 -4.03125,-4.03125c0,-2.28437 1.74688,-4.03125 4.03125,-4.03125h26.875c2.28437,0 4.03125,1.74688 4.03125,4.03125c0,2.28437 -1.74688,4.03125 -4.03125,4.03125z" fill="#444b54"></path><path d="M153.1875,130.34375h-134.375c-9.675,0 -17.46875,-7.79375 -17.46875,-17.46875v-4.03125c0,-2.28437 1.74687,-4.03125 4.03125,-4.03125h47.03125c2.28438,0 4.03125,1.74688 4.03125,4.03125c0,2.28437 -1.74687,4.03125 -4.03125,4.03125h-43c0,5.24063 4.16563,9.40625 9.40625,9.40625h134.375c5.24062,0 9.40625,-4.16562 9.40625,-9.40625h-43c-2.28437,0 -4.03125,-1.74688 -4.03125,-4.03125c0,-2.28437 1.74688,-4.03125 4.03125,-4.03125h47.03125c2.28438,0 4.03125,1.74688 4.03125,4.03125v4.03125c0,9.675 -7.79375,17.46875 -17.46875,17.46875zM153.1875,98.09375c-2.28438,0 -4.03125,-1.74688 -4.03125,-4.03125v-75.25c0,-5.24062 -4.16563,-9.40625 -9.40625,-9.40625h-107.5c-5.24062,0 -9.40625,4.16563 -9.40625,9.40625v75.25c0,2.28437 -1.74687,4.03125 -4.03125,4.03125c-2.28438,0 -4.03125,-1.74688 -4.03125,-4.03125v-75.25c0,-9.675 7.79375,-17.46875 17.46875,-17.46875h107.5c9.675,0 17.46875,7.79375 17.46875,17.46875v75.25c0,2.28437 -1.74687,4.03125 -4.03125,4.03125z" fill="#444b54"></path><g fill="#f37022"><path d="M153.1875,162.59375h-63.15625v-16.125c0,-2.28438 -1.74688,-4.03125 -4.03125,-4.03125c-2.28437,0 -4.03125,1.74687 -4.03125,4.03125v16.125h-43c-2.28437,0 -4.03125,1.74687 -4.03125,4.03125c0,2.28438 1.74688,4.03125 4.03125,4.03125h114.21875c2.28438,0 4.03125,-1.74687 4.03125,-4.03125c0,-2.28438 -1.74687,-4.03125 -4.03125,-4.03125zM18.8125,170.65625c-0.26875,0 -0.5375,0 -0.80625,-0.13438c-0.26875,0 -0.5375,-0.13437 -0.80625,-0.26875c-0.26875,-0.13438 -0.40312,-0.26875 -0.67187,-0.40313c-0.26875,-0.13437 -0.40312,-0.26875 -0.5375,-0.5375c-0.80625,-0.80625 -1.20937,-1.74687 -1.20937,-2.82188c0,-0.26875 0,-0.5375 0.13438,-0.80625c0,-0.26875 0.13437,-0.5375 0.26875,-0.80625c0.13437,-0.26875 0.26875,-0.40312 0.40313,-0.67187c0.13437,-0.26875 0.26875,-0.40312 0.5375,-0.67187c0.26875,-0.26875 0.40312,-0.40312 0.5375,-0.5375c0.26875,-0.13438 0.40312,-0.26875 0.67188,-0.40312c0.26875,-0.13438 0.5375,-0.13438 0.80625,-0.26875c1.34375,-0.26875 2.6875,0.13437 3.62813,1.075c0.13437,0.13438 0.40312,0.40312 0.5375,0.67188c0.13438,0.26875 0.26875,0.40312 0.40312,0.67188c0.13438,0.26875 0.13438,0.5375 0.26875,0.80625c0,0.26875 0.13438,0.5375 0.13438,0.80625c0,1.075 -0.40313,2.15 -1.20938,2.82188c-0.94063,1.075 -2.01562,1.47813 -3.09062,1.47813z"></path></g></g><g fill="#f37022"><path d="M46.32,42.94l7.69,25.66l7.73,-25.66h7.83l-11.88,34.12h-7.34l-11.84,-34.12zM85.98,65.04h-6.17v12.02h-7.03v-34.12h13.31c2.56667,0 4.82,0.46667 6.76,1.4c1.94667,0.94 3.44333,2.27333 4.49,4c1.04667,1.72667 1.57,3.69 1.57,5.89v0c0,3.34667 -1.14333,5.98333 -3.43,7.91c-2.28667,1.93333 -5.45333,2.9 -9.5,2.9zM79.81,48.63v10.71h6.28c1.86,0 3.28,-0.43667 4.26,-1.31c0.97333,-0.87333 1.46,-2.12333 1.46,-3.75v0c0,-1.67333 -0.49333,-3.02667 -1.48,-4.06c-0.98,-1.02667 -2.33667,-1.55667 -4.07,-1.59v0zM131.49,42.94v34.12h-7.03l-13.69,-22.45v22.45h-7.03v-34.12h7.03l13.71,22.5v-22.5z"></path></g></g></svg>